<?xml version="1.0" encoding="UTF-8"?>
<svg width="180px" height="180px" viewBox="0 0 180 180" version="1.1" xmlns="http://www.w3.org/2000/svg" xmlns:xlink="http://www.w3.org/1999/xlink">
    <!-- Generator: Sketch 52.6 (67491) - http://www.bohemiancoding.com/sketch -->
    <title>Logo</title>
    <desc>Created with Sketch.</desc>
    <g id="Logo" stroke="none" stroke-width="1" fill="none" fill-rule="evenodd">
        <g id="bananas" transform="translate(18.000000, 14.000000)" fill="#F8C41C" stroke="#FFFFFF">
            <g>
                <path d="M13.0580648,53.5957055 L13.0580648,48.32 L5.69791596,48.32 C2.8733758,48.32 0.578064805,46.0239378 0.578064805,43.2058394 L0.578064805,32.6341606 C0.578064805,29.8093695 2.87567403,27.52 5.69791596,27.52 L35.7782137,27.52 C38.6027538,27.52 40.8980648,29.8160622 40.8980648,32.6341606 L40.8980648,43.2058394 C40.8980648,46.0306305 38.6004556,48.32 35.7782137,48.32 L28.0980648,48.32 L28.0980648,54.2301036 C28.8936032,56.3209506 29.5554163,58.9756521 30.3469018,62.9467316 C30.5967009,64.2000358 31.7755431,70.435532 32.1369608,72.2426888 C32.9067079,76.0915687 33.6389555,79.2872247 34.4828922,82.3381085 C37.4340482,93.006722 41.5280396,100.786833 47.6309018,105.907743 C53.2437974,110.617521 60.8287927,113.277147 70.5851065,114.485364 C75.7801002,115.12871 79.9099407,115.295141 88.8658293,115.40538 C99.6584374,115.538227 103.14356,115.846271 106.061701,117.611793 C110.857587,120.513381 109.660325,125.576301 103.686575,132.695539 C82.3296668,158.14771 44.3834102,161.467578 18.9312385,140.11067 C-6.52093329,118.753762 -9.84080056,80.8075051 11.5161074,55.3553333 C12.0471049,54.7225151 12.5606814,54.1363815 13.0580648,53.5957055 Z" id="banana1" stroke-width="5.12" style="mix-blend-mode: color-burn;"></path>
                <path d="M35.1380648,38.5557055 L35.1380648,33.28 L27.777916,33.28 C24.9533758,33.28 22.6580648,30.9839378 22.6580648,28.1658394 L22.6580648,17.5941606 C22.6580648,14.7693695 24.955674,12.48 27.777916,12.48 L57.8582137,12.48 C60.6827538,12.48 62.9780648,14.7760622 62.9780648,17.5941606 L62.9780648,28.1658394 C62.9780648,30.9906305 60.6804556,33.28 57.8582137,33.28 L50.1780648,33.28 L50.1780648,39.1901036 C50.9736032,41.2809506 51.6354163,43.9356521 52.4269018,47.9067316 C52.6767009,49.1600358 53.8555431,55.395532 54.2169608,57.2026888 C54.9867079,61.0515687 55.7189555,64.2472247 56.5628922,67.2981085 C59.5140482,77.966722 63.6080396,85.7468334 69.7109018,90.8677428 C75.3237974,95.5775214 82.9087927,98.2371472 92.6651065,99.4453642 C97.8601002,100.08871 101.989941,100.255141 110.945829,100.36538 C121.738437,100.498227 125.22356,100.806271 128.141701,102.571793 C132.937587,105.473381 131.740325,110.536301 125.766575,117.655539 C104.409667,143.10771 66.4634102,146.427578 41.0112385,125.07067 C15.5590667,103.713762 12.2391994,65.7675051 33.5961074,40.3153333 C34.1271049,39.6825151 34.6406814,39.0963815 35.1380648,38.5557055 Z" id="banana2" stroke-width="5.12" style="mix-blend-mode: color-burn;"></path>
                <path d="M57.2180648,23.5157055 L57.2180648,18.24 L49.857916,18.24 C47.0333758,18.24 44.7380648,15.9439378 44.7380648,13.1258394 L44.7380648,2.55416056 C44.7380648,-0.270630482 47.035674,-2.56 49.857916,-2.56 L79.9382137,-2.56 C82.7627538,-2.56 85.0580648,-0.263937814 85.0580648,2.55416056 L85.0580648,13.1258394 C85.0580648,15.9506305 82.7604556,18.24 79.9382137,18.24 L72.2580648,18.24 L72.2580648,24.1501036 C73.0536032,26.2409506 73.7154163,28.8956521 74.5069018,32.8667316 C74.7567009,34.1200358 75.9355431,40.355532 76.2969608,42.1626888 C77.0667079,46.0115687 77.7989555,49.2072247 78.6428922,52.2581085 C81.5940482,62.926722 85.6880396,70.7068334 91.7909018,75.8277428 C97.4037974,80.5375214 104.988793,83.1971472 114.745106,84.4053642 C119.9401,85.0487096 124.069941,85.2151408 133.025829,85.3253798 C143.818437,85.4582271 147.30356,85.7662714 150.221701,87.5317932 C155.017587,90.4333811 153.820325,95.4963008 147.846575,102.615539 C126.489667,128.06771 88.5434102,131.387578 63.0912385,110.03067 C37.6390667,88.6737617 34.3191994,50.7275051 55.6761074,25.2753333 C56.2071049,24.6425151 56.7206814,24.0563815 57.2180648,23.5157055 Z" id="banana3" stroke-width="5.12" style="mix-blend-mode: color-burn;"></path>
            </g>
        </g>
    </g>
</svg>