<?xml version="1.0" encoding="utf-8"?>
<!-- Generator: Adobe Illustrator 27.9.0, SVG Export Plug-In . SVG Version: 6.00 Build 0)  -->
<svg version="1.1" id="Layer_1" xmlns="http://www.w3.org/2000/svg" xmlns:xlink="http://www.w3.org/1999/xlink" x="0px" y="0px"
	 viewBox="0 0 100 100" style="enable-background:new 0 0 100 100;" xml:space="preserve">
<g>
	<path fill="#fcd34d" d="M66.9032974,57.8633194c4.6290131-0.0017052,9.23526-0.6475754,13.6862259-1.9190254
		c1.0755005-0.8857002,2.151001-1.729229,3.1843185-2.783638c4.2664185-3.9652061,7.7438965-8.7020111,10.2488556-13.9603729
		c0.3609467-0.7861633,0.1236801-1.7176437-0.5693741-2.2353477l-2.5727539-2.1088181
		c-0.7440109-0.5714836-1.7992859-0.4896049-2.4462433,0.1897926C72.1682358,51.293396,46.4562607,53.1773872,27.9956074,39.4744225
		C37.5285759,51.1572189,51.824749,57.9139977,66.9032974,57.8633194z"/>
	<path fill="#fcd34d" d="M97.0804825,57.8633194l-2.1088181-3.0156097c-0.6207962-0.8904381-1.8161163-1.1641769-2.7625504-0.6326447
		c-23.9754791,13.067894-53.9565163,5.7621307-69.2324982-16.8705444l-0.7591763-1.1598473
		c3.9594707,22.1784973,22.2511501,38.9767952,44.6858521,41.0375938c4.9457169-0.8881836,9.7390366-2.4788666,14.2345276-4.7237549
		c5.9892578-2.935791,11.3586426-6.9950485,15.8161316-11.9569931
		C97.6312714,59.7939491,97.6843033,58.6714058,97.0804825,57.8633194z"/>
	<path fill="#fcd34d" d="M73.482811,80.2167892c-27.2870636,1.0013504-50.8716698-18.8867645-54.4918594-45.9511414
		c-1.0356407-7.9926281-0.2571907-16.1158943,2.2775288-23.7663765c0.3000355-0.8451147-0.1418324-1.7734423-0.9869404-2.0734825
		c-0.3134708-0.1112909-0.6535587-0.1236238-0.9742622-0.0353346l-6.3264532,1.6448793
		c-0.6819401,0.1790657-1.1739178,0.772831-1.223114,1.4761734l-0.9067926,12.6529026L8.2148972,26.420845
		c-3.624269,3.0914288-5.7127223,7.6151161-5.7148981,12.3787575l0,0
		c0.0465455,29.2447701,23.7918568,52.9146156,53.0366287,52.8680687c0.0000458,0,0.0000954,0,0.000145,0
		c6.6653099,0.0139694,13.271904-1.2458038,19.464386-3.711525c0.9134293-0.371254,1.4476852-1.3258896,1.2863846-2.2985992
		l-0.6115646-3.6904297C75.495491,80.9113846,74.5522766,80.1586304,73.482811,80.2167892z"/>
</g>
</svg>
